<svg xmlns="http://www.w3.org/2000/svg" viewBox="0 0 237.83 212.98"><defs><style>.cls-1{fill:#2fac66;}.cls-2{fill:#f6f6f6;}</style></defs><title>colornb</title><g id="Layer_6" data-name="Layer 6"><path class="cls-1" d="M68.49,90.63c1.51,15.24-7.64,23.77-16,24.5C39.46,116.27,29.9,104.33,30.67,91,31.41,78,37.39,67.23,50.51,67.23,52.68,67.54,68.18,84.28,68.49,90.63Z"/><path class="cls-1" d="M204.35,116.64c0,14.81-12.81,26.81-28.6,26.81s-28.6-12-28.6-26.81c0-10.19,6.48-17,14.41-22.49,1.95-1.35,8.69-.87,13.57-.26,9.92,1.24,20.15,4.49,23.86,7.94C202.86,105.42,204.35,111,204.35,116.64Z"/></g><g id="Layer_2" data-name="Layer 2"><path d="M39,193.35c0,.22-14.87-7-14.87-24.29.68-10.21,11.57-18.72,15.43-21.56-.11.34-11.46,11.92-12.59,21.9C26.93,186.72,35.55,188.13,39,193.35Z"/><path d="M69.37,81.24c0-.23,6.15,1.52,3.29,18.6-2.36,10-8.89,16.23-13.17,18.39.17-.32,7.79-9.18,10.56-18.84C72.32,87.25,69.59,85.21,69.37,81.24Z"/><path d="M58.67,197.69a.66.66,0,0,1-.08-1.25,18.11,18.11,0,0,1,10.59.62c4.71,2.26,3.54,6.4-1,3.86C63.61,199.22,60.8,198.1,58.67,197.69Z"/><path d="M200.52,103.65a29,29,0,0,1,3.53,13.44c0,14-12.68,25.46-28.27,25.46s-28.27-11.42-28.27-25.46a23.89,23.89,0,0,1,13.75-22.2c1.17-.63,1-.93.93-1.29-9.34,4.44-15.74,13.3-15.74,23.49,0,14.62,13.16,26.51,29.33,26.51s29.33-11.89,29.33-26.51a24.41,24.41,0,0,0-3.33-12.26S200.89,103.61,200.52,103.65Z"/><path d="M68,101.86c-3.27,7.53-9.8,12.68-17.32,12.68C39.9,114.54,31.14,104,31.14,91c0-9,3.38-16.55,9.5-20.54.81-.58.67-.86.64-1.19C34.82,73.36,30.41,81.55,30.41,91c0,13.53,9.09,24.53,20.27,24.53,7.46,0,14-4.91,17.51-12.21C68.11,102.83,68.05,102.34,68,101.86Z"/><circle cx="175.75" cy="115.52" r="9.96"/><circle cx="51.28" cy="90.24" r="8.55"/></g><g id="Layer_3" data-name="Layer 3"><path d="M154.18,93.81c-13.41.26-28.71,11.21-34.22,25.66-1,2.68-5.23,2.3-5,5.75.28,3.71,5.34,3.63,7.16,4,.35.07.58.17.63.31,2.76,7.89,8.94,9.7,21.74,14.19-3.6-1.63-12.09-6.06-12.8-6.91a25.13,25.13,0,0,1-7.79-8.75,15.94,15.94,0,0,1-2.3-6.57c-.23,0,.13,3.58.64,5.43a.67.67,0,0,1-.74.85c-1.64-.24-4.53-.89-5.13-1.94-1.48-2.6,4.82-4.23,5.36-5.49,5.49-12.9,21.43-25.53,46.08-25.53,24,0,43.89,11.66,45,25.77.07.88-.71,2.74-3.09,5.31-4.53,4.89-13.91,13-26.57,16.53-4.4,1.71-9.64,2.26-14,4,19.57-.85,36.18-11.33,42.8-18.48,1.88-2,4.33-6.2,4-6.32,3.41-.37,16.89-4.18,15.58-4.08-11.49.89-16.43-1-14.43-.89,8.81.51,16.27-4,15.13-3.85a70.22,70.22,0,0,1-17.3,0c10.6-1.15,17.51-5.37,15.72-5-9.59,2.15-19,2.26-17.76,1.89,12.51-3.7,13.15-6.21,12.89-6.13-4.34,1.41-17.13,3.06-16,2.81,12-2.55,16.42-6.6,15.45-6.25-6.76,2.42-19.43,3.26-18.13,3.06,8.3-1.28,17.91-5.78,17.1-5.61-16.33,3.57-24.63,2.36-23.48,2.16,7.41-1.27,18.86-6,17.78-6.8s-23,5.81-21.61,5.4c6.38-1.91,16.31-7.22,15.32-7.79-.61-.35-15.83,5.75-20.68,5.62-.84,0,17.21-9.17,16.45-9.55s-20.95,8-20.15,7.64c13.78-6.9,16.55-9.32,16-9.58-1-.4-15.57,8.55-23.1,8.43.13.25,11.36-4.85,19-10-17.11,7.79-22.63,8.54-23.87,8.3,8.3-2.81,16.21-6.39,16.08-8.43-.82-.08-23.83,8.59-24.64,8.55s16.89-9.59,16.09-9.57c-1,0-21.29,10.61-22.21,10.72s16.23-12.43,15.44-12.25C175.61,80.77,159.41,92.92,154.18,93.81Z"/><path d="M63.54,108.51a1.59,1.59,0,0,1-.13.13,9.74,9.74,0,0,1-2.31,2.64c.69-.12,1.38-.22,2.07-.31h0c2.81-2,4.32-4.88,5.84-7.87.16-.3.5-.9.9-1.62,1.57-10-3.83-22.76-14.71-32.46-3.52-3.14-10.44-7.25-10.67-7.83-7.42-7-7.08-17.27-7.13-17.27-.82,1.74-2.55,5.12.6,12.37.57,1.33-6.26-8.94-6.22-15.21-1.49,4.24-.38,12,1.75,14.19-1.15-.32-6.07-8.74-8.3-16-1,2.55,1.53,11.36,5.5,16.23.12.05-9.84-9.34-11.46-16.45-.21-.92,1.43,9.18,4.49,14.2.4.66-6.38-4.92-9.46-12.68-.86.64,4.16,13.25,8.2,15.8-6-2.48-9.59-12.7-9.72-12.76-.34-.17,2.49,10.34,7.41,14.3.72.58-7.28-4.73-10-10.89-.33-.74,4.09,9.87,7.52,12.61a14.9,14.9,0,0,1-8.88-7.53c-.23-.52,3.45,9.13,6.55,9.65.85.15-3.29,1.58-6.35-4.61-.53-1.07.25,6.39,4.7,10.77-1,10.44.3,11.34,1.88,15.76A42.16,42.16,0,0,1,16,72.1c.14-1,.32-2,.54-2.95a4.52,4.52,0,0,1,.55-2.06c1.05-3.36,2.93-6.32,6.57-7.24a12.37,12.37,0,0,1,2.86-.74A16.56,16.56,0,0,1,28.4,59c7,0,16.08,4.46,24.82,12.25C66.59,83.17,71.23,99.89,63.54,108.51Z"/></g><g id="Layer_4" data-name="Layer 4"><path d="M152.12,73A64.07,64.07,0,0,1,160,70.8a84.62,84.62,0,0,1,27.3-1.6c10.61,1.1,21.83,4,30.66,10.33,5.59,4,10.26,9.83,10.35,16.93a17.68,17.68,0,0,1-.17,2.22l0,0c2.76,1.23,3.79-1.18,4.52-4.08,1.1-4.42-4.46-12.9-10.05-16.93A51.6,51.6,0,0,0,199.75,68c-17.32-3-36.42-3.34-52,5h0A6.58,6.58,0,0,0,152.12,73Z"/><path d="M64.29,56.86a42.15,42.15,0,0,0-2.54-4.39A52.68,52.68,0,0,0,50.28,40c-5.21-4.09-11.45-7.67-18.13-8.64-4.23-.61-8.82,0-11.92,3.07a12.3,12.3,0,0,0-.89,1.07h0c-1.76-.65-1.18-2.17-.25-3.77,1.42-2.45,7.56-3.83,11.79-3.21A32,32,0,0,1,45.24,34c9,6.16,17.68,14.24,21,24.72h0A4.07,4.07,0,0,1,64.29,56.86Z"/><path d="M106.28,96.67C103.07,95,99.62,93.8,96.47,92a15.33,15.33,0,0,1-2.7-25.18c4.75-4.15,11.46-6.11,14-12.41a7.53,7.53,0,0,0-1.2-8.13c-2.28-2.39-5.68-3.41-8.79-4.14-3.66-.87-7.46-1.18-11.08-2.25a25.15,25.15,0,0,1-7.59-3.84,28.1,28.1,0,0,1-11-16.51c-.66-3.13-.68-6.72.83-9.62a7.72,7.72,0,0,1,4.14-3.63H66.57c-.12.09-.25.17-.37.27a10.39,10.39,0,0,0-3.38,7.12c-.53,5.78,2,11.81,5.45,16.35A30.71,30.71,0,0,0,82.66,40.51a70.5,70.5,0,0,0,10.5,2.33c3,.55,6.69,1.17,8.81,3.64s1.75,5.74.36,8.43c-1.48,2.85-4,4.78-6.65,6.48s-5.71,3.37-8,5.81a16,16,0,0,0,3.65,24.71c3,1.85,6.42,3,9.6,4.6,1.71.84,3.4,1.75,5.05,2.7a20.4,20.4,0,0,1,4.18,2.87c5.43,5.31,1.68,14.77-2.69,19.45-5.08,5.45-12.69,7.76-20,6.95-.45,0-2.48-.26-2.56.48s2,1,2.4,1c7,.77,14.46-.13,20.56-4a20.8,20.8,0,0,0,9.73-14.77c.35-3.08-.15-6.44-2.33-8.79C112.9,99.89,109.37,98.27,106.28,96.67Z"/><path d="M137.85,14.41c-3.57-2.19-7.23-4.21-10.78-6.43a13.46,13.46,0,0,1-2.22-1.65h-5.94a7.76,7.76,0,0,0,1.16,1.72c2.33,2.61,5.88,4.19,8.84,5.95a67.54,67.54,0,0,1,8.64,5.5,14.2,14.2,0,0,1,4.66,8.43,41.41,41.41,0,0,1,.34,11.23,37.89,37.89,0,0,1-1.81,10.47c-2.14,5.74-7.06,9.51-12.58,11.79-6.54,2.69-13.71,3.28-20.55,4.89-5.35,1.26-11.83,3.76-14,9.28-2.5,6.21,1.6,12.31,6.18,16.26,4.4,3.81,10.4,6.65,12.83,12.26a13.32,13.32,0,0,1,.24,9.89,15.2,15.2,0,0,1-5.4,6.68,44.61,44.61,0,0,1-18.9,7.93c-1,.16-8.7-.26-8.45.85s8,1.41,8.91,1.26c6.55-1.06,13.12-2.78,18.91-6.1,5.07-2.91,9.51-7.41,10.47-13.38a15.47,15.47,0,0,0-1.26-9.07,21.6,21.6,0,0,0-6-7.16c-4.73-3.91-11-7.15-13-13.45a7.85,7.85,0,0,1,1.48-7.7A14.18,14.18,0,0,1,106,70.21c7-2.15,14.37-2.58,21.32-4.91,6.09-2,12-5.4,15.71-10.75,4-5.78,4.55-13.51,4.61-20.36,0-4.07-.33-8.25-2.08-12C144,18.71,141.07,16.38,137.85,14.41Z"/><path d="M122.3,17.54c-4-2.62-9.15-6.37-10.52-11.21h-5A15.23,15.23,0,0,0,111.21,13c5.35,5.06,12.23,8.12,18.14,12.44,5.37,3.92,10.39,9.48,11.19,16.35.76,6.53-3,12.13-8.16,15.77-5.82,4.13-12.84,5.56-19.61,7.32-6,1.55-13.83,3.44-17.22,9.16C91.92,80.17,96.9,87,101.69,90.69c5.08,4,11.61,7.13,13.84,13.65A15.07,15.07,0,0,1,110.78,121a46.09,46.09,0,0,1-9.3,5.39,30.37,30.37,0,0,1-10.56,3.12,12.92,12.92,0,0,1-4.53-.65,9,9,0,0,0-3.42-.15c-.29,0-1.87.32-.9.61,7.42,2.23,15.6,1,22.62-2a52.79,52.79,0,0,0,10.07-5.48,15.29,15.29,0,0,0,5.75-7.42c2.14-6.21,0-12.58-4.67-17-5.15-4.76-12.28-7.55-15.4-14.23a9.74,9.74,0,0,1,.2-9.37c1.74-2.82,4.88-4.61,7.86-5.84,7.2-3,15.07-3.79,22.26-6.75,5.7-2.35,11.36-6.34,13.78-12.22,2.64-6.43.06-13.18-4.19-18.23C135.46,25,128.53,21.65,122.3,17.54Z"/><path d="M113,34.21a114.7,114.7,0,0,1-10.35-9c-3.32-3.33-7.62-6.88-8.44-11.76A31.47,31.47,0,0,1,94,6.62l0-.29H89.55A24.33,24.33,0,0,0,89.28,12a15.26,15.26,0,0,0,1.23,6.3,22.37,22.37,0,0,0,4.08,5.17,103.63,103.63,0,0,0,10.11,9.66c3.38,2.72,7.18,5.16,9.44,9a10.13,10.13,0,0,1,0,11c-2.11,3.31-5.46,5.47-8.65,7.62-3,2-6.13,4.21-8.17,7.27-2.34,3.49-2.22,7.67-1.65,11.68.69,4.75,2.51,9,6.28,12,3.54,2.9,8.15,5.23,9.4,10,.16.62,4.92-.84,4.68-1.75-1-4-4.51-6.36-7.64-8.66a20.68,20.68,0,0,1-4.82-4.51,17.54,17.54,0,0,1-2.51-5.47c-1.07-3.82-1.8-8.78-.29-12.56,1.38-3.45,4.39-5.87,7.37-7.93C113.7,57,122,52,120.32,44,119.44,39.85,116.24,36.76,113,34.21Z"/><path d="M105.7,91c-3.4-1.65-6.85-3.33-7.67-7.38s.25-8.7,1.73-12.56a53.22,53.22,0,0,1,3.41-7.1l.47-.36c3.44-2.61,7.36-5.59,9.5-9.44,1.16-2.07.24-4.4-.25-6.54s-1-4.5-1.6-6.7a10.32,10.32,0,0,0-3.16-5.21,18.23,18.23,0,0,0-6-2.85c-4.37-1.48-8.84-2.8-13-4.93a26.88,26.88,0,0,1-5.66-3.84c-1.64-1.49-3.57-3.45-4.15-5.66s.52-4.83,1.51-6.76a17,17,0,0,1,4.32-5.32H79.16a18.9,18.9,0,0,0-4.65,8.86c-1,4.76,2.41,8.55,5.83,11.4a40.47,40.47,0,0,0,12,6.5c2.3.85,4.64,1.6,7,2.38,1.9.65,4.15,1.18,5.5,2.78S106.58,42,107,44c.56,2.4,1.34,4.86,1.67,7.3.31,2.19-2,4.15-3.43,5.58-.24.25-.5.49-.75.73a2.36,2.36,0,0,0-.36-.11,2.93,2.93,0,0,0-3.1,1c-.77,1.23-1.56,2.51-2.32,3.83a26.17,26.17,0,0,0-7.39,8.78A33.91,33.91,0,0,0,88,83.57a9.32,9.32,0,0,0,1.73,6.72,12.09,12.09,0,0,0,6,3.39,53.45,53.45,0,0,1,14,6c1,.67,5.06.69,4.21-1.47C112.53,94.6,109,92.61,105.7,91ZM95.53,89.92A5.22,5.22,0,0,1,93,85.27c0-.61,0-1.22,0-1.84a.25.25,0,0,0,0,.08,11,11,0,0,0,5,7.39A13.07,13.07,0,0,1,95.53,89.92Z"/><path d="M113.64,23.92c-2.93-2.13-6.43-4.29-8.59-7.27s-2-6.82-1.73-10.32H98.84a17.37,17.37,0,0,0,1,7.12c1.28,3.12,3.86,5.45,6.4,7.54,5.18,4.26,11.22,7.6,15.64,12.73,4,4.65,6.37,11.57,3.42,17.38-2.57,5.06-8.06,7.66-13.1,9.61-3.48,1.35-6.78,2.61-9.61,5.12A45,45,0,0,0,95.86,74c-.83,1.19,3.34,4,4.22,2.68a50,50,0,0,1,6-7.46,23.61,23.61,0,0,1,8.57-4.92c5.22-2,11-4.39,14.15-9.25,3.52-5.38,2.34-12.22-.8-17.47C124.53,31.82,119,27.79,113.64,23.92Z"/><path d="M127.21,26.52c-2.79-2.11-5.59-4.2-8.38-6.3l-4.69-3.53a29.85,29.85,0,0,1-4.36-3.64,11.28,11.28,0,0,1-2.84-6.72h-5a12.2,12.2,0,0,0,1.82,5.74c1.71,2.74,4.62,4.53,7.14,6.43L119.5,25a83.71,83.71,0,0,1,7.24,5.78,18.13,18.13,0,0,1,5,7.2,19.32,19.32,0,0,1,.41,9.67,11.42,11.42,0,0,1-1.34,4.07A10.64,10.64,0,0,1,127.1,55a59,59,0,0,1-7.46,3.73c-5.81,2.55-11.82,5-16.3,9.65-.63.66,1.56.91,1.79.93.91,0,2.35,0,3.05-.7,4-4.19,9.45-6.43,14.68-8.72a75.28,75.28,0,0,0,7.93-3.85c2.59-1.51,4.85-3.28,5.81-6.23,1.92-6,1.16-12.56-2.88-17.43A39.58,39.58,0,0,0,127.21,26.52Z"/><path d="M130.58,17.12A39.47,39.47,0,0,1,120.13,9a15.75,15.75,0,0,1-1.93-2.68H113c1.36,3.43,4.26,6.24,7,8.57,5.81,4.91,14.14,7.19,18.51,13.71A11.79,11.79,0,0,1,139.64,39a43.85,43.85,0,0,1-5.06,10.39A13.07,13.07,0,0,1,131,53.25a23.42,23.42,0,0,1-5.26,2.29c-3.51,1.23-7.09,2.19-10.68,3.16-8.28,2.23-16.64,4.54-23.85,9.37a1.56,1.56,0,0,0,0,2.59,3.17,3.17,0,0,0,3.53,0c6.16-4.12,13.34-6.21,20.42-8.13,3.72-1,7.44-2,11.11-3.17s7.56-2.49,10.4-5.3c2.63-2.6,4.31-6.21,5.92-9.49,1.73-3.53,3.24-7.52,2.71-11.53C144.21,25.12,136.9,20.77,130.58,17.12Z"/><path d="M126.13,13.27a53,53,0,0,1-10.94-6.94h-6.36a28,28,0,0,0,2.8,2.76,44.08,44.08,0,0,0,5.07,4c6.31,4.17,14.75,6.37,19.23,12.88,2.34,3.39,2.32,7.35,1.93,11.3s-.93,7.93-3,11.34c-4,6.54-11.33,9.83-18.46,11.85-4.71,1.33-9.55,2.26-14.33,3.31-4.58,1-9.69,1.56-13.71,4.13-1.1.71-.86,2.4-.11,3.24a2.6,2.6,0,0,0,3.41.47,15.47,15.47,0,0,1,5-1.81l7-1.54c4.32-1,8.66-1.85,12.94-3,7.78-2,15.43-5.18,20.67-11.52A22.64,22.64,0,0,0,142,43c.73-4.27,1.35-8.86.49-13.15C140.83,21.48,133.08,16.85,126.13,13.27Z"/><path d="M104.4,16.77a17.24,17.24,0,0,1-2.1-10.44H97.47a20.29,20.29,0,0,0,.86,9c1.41,3.88,4.36,6.86,7.47,9.46s6.39,4.86,9,7.9a14.35,14.35,0,0,1,3.39,12.57c-1.27,6-5.58,10.49-10.44,13.89-.82.57-.58,1.26.33,1.47a4.76,4.76,0,0,0,3.45-.77C115.9,56.83,120,53,122,48a15.7,15.7,0,0,0-.6-14C117.29,26.83,108.67,23.82,104.4,16.77Z"/><path d="M95.64,30.94c-3.77-2.47-8.14-3.58-12.18-5.49-2-.95-4-2-5.91-3.09a9.92,9.92,0,0,1-3.84-3.6c-2.1-3.73-.83-8.19,2.07-11.08a1.61,1.61,0,0,0,.44-1.35H70.63c-4,6.33-1.67,15.13,4.69,19.31A63,63,0,0,0,87.65,31.7a35.13,35.13,0,0,1,5.92,2.61,30.53,30.53,0,0,1,5,3.82c1.76,1.63,3.51,3.32,5.1,5.12,1.33,1.5,2.39,3.3,1.64,5.33s2.89,5.34,3.88,2.66c1.62-4.39-1-8.67-3.92-11.77A56.25,56.25,0,0,0,95.64,30.94Z"/><path d="M85.65,34.39c-3.52-1.38-8.1-1.94-10-5.64-1.76-3.45-1.59-8-.46-11.59A18.65,18.65,0,0,1,83.26,6.94c.14-.09.17-.31.13-.61H76.5a18.8,18.8,0,0,0-3.35,5.57A20,20,0,0,0,73,25.18c1.35,4.22,3.87,9.4,8.14,11.34,2,.9,4.18,1.43,6.23,2.23a54.87,54.87,0,0,1,6.14,2.81,30.64,30.64,0,0,1,10.92,9.23c.31.45.9,1.35,1.07.46s-.93-2.49-1.37-3.14C99.64,41.56,93,37.26,85.65,34.39Z"/><path d="M107.32,43.7c-5-5.05-11.58-7.3-17.91-10.14-5.3-2.37-11.91-6.05-12.16-12.64a4.12,4.12,0,0,0-1.65-3c-.51-.39-2-.91-1.92.29.3,7.89,6.2,14,12.8,17.56,6.45,3.5,14.35,5.12,19.65,10.48.51.52,1.72,1.43,2.28.5s-.53-2.44-1.09-3Z"/><path d="M110.19,35.81a83.18,83.18,0,0,0-7.54-9c-2.48-2.54-5.55-4.75-6.9-8.14C94.27,15,94.37,10.82,94.43,6.92a1.49,1.49,0,0,0-.16-.59H85.52a65.68,65.68,0,0,0-2.71,9.93,10.7,10.7,0,0,0,.58,6.86,19.55,19.55,0,0,0,4.07,5.24A50.14,50.14,0,0,0,98.6,36.21c2,1.07,4,2,6,3.09a9.78,9.78,0,0,1,4.31,3.52c2.18,3.7,1.78,8.62,1.47,12.73a3.11,3.11,0,0,0,1.82,2.67c.61.35,2.23.86,2.43-.27.7-3.92,1.41-8,.63-12C114.51,42.17,112.42,38.89,110.19,35.81Zm-4.79.64A104.88,104.88,0,0,1,94,30.16c-3.18-2.22-7.56-5.36-7.23-9.7a40.49,40.49,0,0,1,1.77-8c.47-1.6,1-3.17,1.57-4.73a31.72,31.72,0,0,0,.85,8,19.57,19.57,0,0,0,5.69,9.24,95.86,95.86,0,0,1,7.7,8.17,60.87,60.87,0,0,1,3.8,5.07A23.55,23.55,0,0,0,105.4,36.45Z"/><path d="M100.66,17.09c-1.71-3.58-1.23-7.18-.23-10.76H96.16A18.13,18.13,0,0,0,96,13.22c.79,4.22,3.3,8,5.86,11.37a105.44,105.44,0,0,0,8.06,9c2.68,2.77,5.32,5.57,6.67,9.24a18.49,18.49,0,0,1-.1,12.39c-.63,1.79,2.74,5.3,3.6,2.83,2.73-7.86.65-16.28-4.39-22.7C110.87,29.14,104.1,24.34,100.66,17.09Z"/><path d="M119.42,22.81c-3.52-3.07-7.34-5.71-10.68-9a66.13,66.13,0,0,1-6.44-7.46H100A76.73,76.73,0,0,0,115.64,23.1c3,2.34,6.77,4.56,8.06,8.32s.8,8.38-.49,12.2c-1.64,4.86-4.54,9.17-7.59,13.24-.75,1,1.82,5.08,2.56,4.11,5.62-7.48,10.52-16.23,8.46-25.91A22.4,22.4,0,0,0,119.42,22.81Z"/><path d="M123.33,18.77a14.92,14.92,0,0,1-5.47-12.44h-9.12A83.23,83.23,0,0,0,109.63,19a.3.3,0,0,0,0,.1c-1.06-2.71-2.06-5.45-3-8.17-.26-.72-2.11-1.21-2.75-1.42-.24-.08-2-.64-1.83-.12,3.43,9.5,7,19.13,13,27.31.31.4,3.76,2,4.48,1.79a39.72,39.72,0,0,1-1.07,9.27,44.6,44.6,0,0,1-5.45,13c-.29.46,3.91,2.18,4.53,1.9,4.29-2,8.65-4,12.32-7.06A19.22,19.22,0,0,0,137,42.88c.59-4.89-.05-10.67-2.64-15S127.08,21.79,123.33,18.77ZM116.8,30.05a41.84,41.84,0,0,1-2.52-9.27q-.3-1.94-.48-3.87c.85,2.05,1.7,4.09,2.49,6.15a46.62,46.62,0,0,1,3.11,12.11c0,.1,0,.21,0,.32C118.8,33.6,117.5,31.76,116.8,30.05Zm15.74,8.42a19.33,19.33,0,0,1-5.65,13.8,30.42,30.42,0,0,1-6.23,4.64,40.75,40.75,0,0,0,3.52-18.21c-.39-8.09-3.87-15.39-6.84-22.78,3.12,3.26,7.51,4.89,10.67,8.11C131.64,27.74,132.62,33.47,132.54,38.47Z"/><path d="M133.78,14.41a4,4,0,0,0-3.45-.2l0,0a1.12,1.12,0,0,1-.05-.13A20.73,20.73,0,0,0,127.15,9l-.06-.11a5.45,5.45,0,0,0-2.71-2.44l-.16-.12h-6.14v0c0,.24,0,.49,0,.74l-.59.24A9.19,9.19,0,0,0,113.59,10c-1.11,1.44-1.29,3.23-1.55,5q-.92,6.27-1.72,12.54-1.81,14-3.11,28.12c-.08.91,1.73,1.07,2.25,1.06a4.53,4.53,0,0,0,1.87-.36,1.06,1.06,0,0,0,.27.36,3.44,3.44,0,0,0,2.85.35,7.53,7.53,0,0,0-1.06,3.54c0,1.6,3.53,1.1,4.32.57C129.81,53,139.18,39.7,138,24.56,137.68,21,137,16.6,133.78,14.41Zm-5,15.38a21.44,21.44,0,0,1-1.37,6.48A59.19,59.19,0,0,0,128.76,29.79ZM114.57,33q.65-5.42,1.39-10.83c.24-1.8.49-3.61.75-5.41a22.2,22.2,0,0,1,.93-5.13c.06-.14.14-.26.21-.39-.13,7.08.31,14.17-1.36,21.14a68.66,68.66,0,0,1-2.88,9C113.92,38.6,114.23,35.81,114.57,33Zm-2.08,21.82c3.57-7.27,7.13-14.64,9-22.57,1.63-7.08,1.22-14.22,1.38-21.39a21.75,21.75,0,0,1,1.47,7.78,54.42,54.42,0,0,1-2.2,18.86,55.85,55.85,0,0,1-4,9.86q-1.2,2.28-2.59,4.42C114.73,53,113.86,54.35,112.49,54.84Zm9.41-1.73q1.39-2.13,2.9-4.2a84.37,84.37,0,0,0,5.56-8.33v0A40.3,40.3,0,0,1,121.9,53.11Z"/><path d="M130.75,6.33a54.91,54.91,0,0,1,6.64,15.1,55.88,55.88,0,0,1,1.76,10.51c.12,1.7.16,3.41.12,5.12,0,1.4-.06,3-1,4.16-.78-8.06-1.63-16.2-4.24-23.9a58.83,58.83,0,0,0-5.28-11H123a66.15,66.15,0,0,1,6.9,13.7,68.88,68.88,0,0,1,2.28,9.16c-1.21-2.54-2.41-5.07-3.59-7.62q-2.28-5-4.51-10l-2.2-5-.13-.3h-5.32L117,7.51q2.52,5.81,5.12,11.57Q127.92,32,134.21,44.64c.4.81,2,0,2.47-.28a4.87,4.87,0,0,0,1.41-1.29,1,1,0,0,0,.41.17A3.47,3.47,0,0,0,141.11,42a7.46,7.46,0,0,0,1,3.57c.87,1.34,3.58-.92,4-1.78,5.36-11.77,6.73-25.9.68-37.49Zm8.24,5a21.32,21.32,0,0,1,2.24,6.22A57.65,57.65,0,0,0,139,11.37Zm6.42,23.44c0-1.7.14-3.4.26-5.09a85.87,85.87,0,0,0,.35-10v0A40.48,40.48,0,0,1,145.41,34.81Z"/><path d="M96.64,27.27c-2.08-2.18-2.49-5.29-2.8-8.17L92.64,7.7a2.54,2.54,0,0,0-.58-1.37H84.57a16.52,16.52,0,0,0-2.13,2.78C80.5,12.4,80.26,16,80.81,19.75a41.06,41.06,0,0,0,1.24,5.35,19.93,19.93,0,0,0,1.91,5c2,3.28,5.82,4.14,9.25,5.21L107,39.63c2.1.66,4.36-1.68,2.58-3.48C105.79,32.39,100.28,31.08,96.64,27.27Zm-7.39,1.92c-1.36-1.06-1.77-3.05-2.22-4.62-1.1-3.78-2.35-8.12-.88-12A11,11,0,0,1,87.87,9.7c.35,3.29.69,6.57,1,9.85.39,3.59,1,7,3.41,9.87A14.94,14.94,0,0,0,94,31.06,13.69,13.69,0,0,1,89.25,29.19Z"/><path d="M94,16.67c.51-3,1.33-5.87,2.11-8.77.15-.53.29-1.05.43-1.57H92.24c-.13.58-.25,1.14-.39,1.64-.85,3.16-1.77,6.31-2.39,9.53-1.1,5.63-1,11.85,2.65,16.58.25.32,2.13-.51,2.43-.63a11.06,11.06,0,0,0,2.26-1.12C93.32,27.88,93.05,22,94,16.67Z"/><path d="M85.44,6.33H80.59a30.27,30.27,0,0,0-2.2,13.35C78.47,21,80,21.48,81,21.26a2.65,2.65,0,0,0,2.2-2.6A26.54,26.54,0,0,1,85.44,6.33Z"/><path d="M74.39,6.33c-.3,1-.53,2-.74,2.89A103.39,103.39,0,0,0,71.89,20c-.16,1.28,1.27,2.15,2.39,2a2.73,2.73,0,0,0,2.44-2.52c.39-3,.78-6,1.44-9,.32-1.42.7-2.84,1.16-4.22Z"/><path d="M73.64,6.33H67.37a13.08,13.08,0,0,0-.74,1.24c-.92,1.81-.87,3.91-.91,5.89,0,2.28,0,4.55.1,6.83a2.91,2.91,0,0,0,2.23,2.4c.74.22,2.51.23,2.46-1-.1-2-.14-4.05-.12-6.07,0-1.76-.18-3.88.56-5.52A16.13,16.13,0,0,1,73.64,6.33Z"/><path d="M111.34,42.46c-8.37-2-16.88-3.9-24.75-7.46a46.41,46.41,0,0,1-10.74-6.37,10.85,10.85,0,0,1-3.5-4.49,18.45,18.45,0,0,1-.68-6.32,46.55,46.55,0,0,1,1-11.49h-5a45.43,45.43,0,0,0-1,9.75c-.07,4.82-.1,9.52,3.16,13.41,2.86,3.42,7.19,5.88,11.12,7.88a83,83,0,0,0,13.09,5.2c5.09,1.57,10.28,2.8,15.47,4a2.78,2.78,0,0,0,3.21-1.42A2,2,0,0,0,111.34,42.46Z"/></g><g id="Layer_8" data-name="Layer 8"><ellipse class="cls-2" cx="46.57" cy="81.79" rx="4.85" ry="4.68"/><ellipse class="cls-2" cx="168.1" cy="107.83" rx="4.85" ry="4.68"/></g></svg>
