<?xml version="1.0" standalone="no"?>
<!DOCTYPE svg PUBLIC "-//W3C//DTD SVG 20010904//EN"
 "http://www.w3.org/TR/2001/REC-SVG-20010904/DTD/svg10.dtd">
<svg version="1.0" xmlns="http://www.w3.org/2000/svg"
 width="239.000000pt" height="239.000000pt" viewBox="0 0 239.000000 239.000000"
 preserveAspectRatio="xMidYMid meet">
<metadata>
Created by potrace 1.11, written by Peter Selinger 2001-2013
</metadata>
<g transform="translate(0.000000,239.000000) scale(0.100000,-0.100000)"
fill="#000000" stroke="none">
<path d="M647 2181 c-36 -61 -13 -157 57 -237 42 -50 104 -80 203 -102 53 -11
81 -23 102 -44 47 -46 26 -91 -73 -158 -73 -49 -99 -91 -99 -155 0 -75 38
-118 158 -179 119 -61 140 -85 131 -149 -10 -62 -35 -90 -119 -132 -53 -26
-89 -36 -135 -39 -35 -2 -66 -7 -69 -10 -12 -11 53 -18 126 -13 59 4 92 12
138 35 115 59 155 109 148 190 -4 52 -35 95 -109 154 -56 45 -96 104 -96 143
0 12 9 34 21 48 21 27 43 36 167 61 136 28 222 83 255 164 25 64 57 217 57
279 0 77 -25 163 -48 164 -48 4 -138 5 -145 1 -4 -2 -3 -10 4 -18 6 -8 9 -17
6 -20 -3 -3 -13 5 -22 19 l-16 25 -312 1 -313 1 -17 -29z m329 -88 c7 -18 11
-33 9 -33 -9 0 -35 60 -34 77 0 14 2 15 6 3 3 -8 12 -30 19 -47z m-86 -25 c-1
-37 -3 -48 -10 -37 -5 8 -7 24 -5 35 2 10 4 27 4 37 1 9 3 17 6 17 3 0 5 -24
5 -52z m-117 -78 c9 -11 13 -20 7 -20 -5 0 -14 9 -20 20 -6 11 -9 20 -8 20 2
0 11 -9 21 -20z m208 3 c13 -16 12 -17 -3 -4 -17 13 -22 21 -14 21 2 0 10 -8
17 -17z"/>
<path d="M285 1985 c-5 -2 -26 -6 -45 -9 -20 -3 -41 -15 -48 -26 -20 -32 -4
-42 28 -18 67 49 203 9 315 -94 31 -28 67 -70 81 -93 28 -49 59 -81 47 -49
-32 88 -148 205 -248 253 -58 28 -109 42 -130 36z"/>
<path d="M251 1859 c-1 -9 6 -35 14 -58 8 -22 11 -41 7 -41 -7 0 -38 44 -60
85 -17 31 -15 -4 3 -54 18 -52 5 -45 -40 22 -43 63 -44 56 -6 -26 28 -58 28
-60 5 -32 -13 17 -24 36 -24 43 0 6 -4 12 -10 12 -10 0 5 -43 23 -67 18 -24
-6 -13 -31 15 l-25 27 20 -35 c10 -19 22 -44 26 -54 7 -17 6 -17 -10 -5 -10 8
-26 23 -36 34 -12 13 -9 3 8 -30 l26 -50 -25 28 c-33 36 -35 13 -4 -46 14 -27
23 -62 24 -98 0 -30 6 -64 13 -75 11 -19 12 -19 9 1 -4 36 14 139 29 168 18
36 63 55 116 51 44 -4 167 -57 167 -73 0 -5 -14 -12 -30 -16 -65 -14 -126
-109 -133 -207 -15 -197 159 -330 305 -233 40 27 41 24 6 -27 -11 -16 -15 -28
-11 -28 11 0 75 67 95 100 44 73 47 260 3 260 -11 0 -11 -8 -4 -32 5 -18 9
-49 8 -68 l-1 -35 -9 38 c-23 97 -96 196 -202 270 -73 51 -111 112 -117 187 0
12 -3 11 -11 -3 -6 -10 -8 -25 -5 -33 4 -10 1 -14 -6 -12 -7 3 -17 21 -22 41
-13 52 -30 46 -23 -8 6 -55 1 -52 -34 23 -15 31 -28 50 -28 41z"/>
<path d="M1635 1593 c-72 -15 -162 -49 -153 -58 3 -3 43 4 89 16 111 27 270
33 374 13 197 -38 339 -150 338 -266 0 -22 33 -24 41 -2 40 105 -110 247 -308
290 -98 22 -293 25 -381 7z"/>
<path d="M1745 1450 c-3 -6 1 -7 9 -4 18 7 21 14 7 14 -6 0 -13 -4 -16 -10z"/>
<path d="M1700 1419 c-46 -36 -147 -89 -170 -89 -112 0 -288 -134 -324 -247
-4 -12 -16 -25 -26 -28 -24 -7 -35 -41 -21 -59 6 -8 24 -16 40 -19 18 -4 36
-18 48 -40 13 -22 39 -42 74 -59 87 -41 109 -43 44 -3 -72 43 -96 67 -124 120
-15 29 -21 34 -21 19 0 -17 -5 -20 -25 -16 -14 2 -25 10 -25 18 0 14 33 36 44
29 3 -3 4 -2 1 1 -6 8 49 89 89 132 38 42 133 95 205 116 30 9 56 14 58 13 2
-2 -14 -22 -35 -45 -22 -23 -45 -61 -52 -84 -47 -158 47 -305 221 -343 35 -7
55 -14 44 -14 -11 -1 -27 -6 -35 -11 -39 -26 155 18 227 51 96 45 223 146 223
178 0 5 33 17 73 26 92 22 101 31 29 28 l-57 -3 50 16 c75 23 81 37 14 31 -31
-3 -63 -1 -70 4 -10 6 -7 9 11 9 14 0 43 9 65 20 31 16 34 19 13 15 -54 -10
-144 -15 -118 -6 33 11 90 40 90 46 0 3 -19 3 -42 -1 l-43 -5 43 20 c23 11 42
22 42 24 0 2 -26 -2 -57 -9 -82 -19 -87 -17 -18 12 47 19 52 23 25 19 -19 -3
-60 -8 -90 -11 -30 -3 -61 -7 -67 -9 -7 -3 -13 -1 -13 4 0 5 12 11 28 14 41 8
129 49 115 54 -6 2 -36 -2 -67 -11 -31 -8 -53 -10 -50 -5 3 5 11 9 18 9 8 0
19 7 26 15 16 20 12 19 -81 -11 -44 -14 -83 -23 -86 -20 -3 3 3 9 13 13 27 10
131 73 121 73 -5 0 -23 -6 -40 -14 -101 -43 -113 -43 -41 -1 68 40 47 40 -40
-1 -89 -40 -124 -42 -44 -2 79 40 102 62 34 33 -56 -25 -90 -28 -47 -5 12 6
21 14 21 19 0 5 -44 -6 -97 -25 -54 -18 -99 -31 -100 -30 -2 1 15 13 37 25 22
12 40 25 40 27 0 3 -3 3 -7 1 -11 -6 -126 -60 -138 -64 -11 -5 14 17 55 47 14
10 23 21 20 24 -3 2 -16 -4 -30 -15z m160 -39 c-8 -5 -19 -10 -25 -10 -5 0 -3
5 5 10 8 5 20 10 25 10 6 0 3 -5 -5 -10z m-40 -14 c0 -2 -7 -7 -16 -10 -8 -3
-12 -2 -9 4 6 10 25 14 25 6z m258 -196 c26 -27 42 -61 48 -100 4 -20 -5 -35
-38 -67 -98 -96 -113 -103 -73 -37 19 32 36 69 36 83 4 62 -2 116 -16 143 -14
28 -13 29 3 17 9 -8 27 -25 40 -39z"/>
<path d="M323 726 c-83 -91 -99 -162 -58 -260 17 -40 95 -126 114 -126 7 0 -6
18 -27 39 -103 105 -101 227 5 359 55 68 32 60 -34 -12z"/>
<path d="M590 302 c0 -13 116 -56 129 -48 15 10 3 32 -22 43 -30 13 -107 17
-107 5z"/>
</g>
</svg>
